{"accessors":[{"name":"bs_1_positions","componentType":5126,"count":2451,"min":[-10.31982135772705,0.04127499833703041,-7.2675461769104],"max":[11.656122207641602,7.358353137969971,5.718696117401123],"type":"VEC3","bufferView":0,"byteOffset":0},{"name":"bs_1_normals","componentType":5126,"count":2451,"min":[-1,-1,-1],"max":[1,1,1],"type":"VEC3","bufferView":0,"byteOffset":29412},{"name":"bs_1_texcoords","componentType":5126,"count":2451,"min":[0.01692499965429306,0.010521999560296535],"max":[0.988457977771759,0.9878640174865723],"type":"VEC2","bufferView":1,"byteOffset":0},{"name":"bs_1_0_indices","componentType":5123,"count":7758,"min":[0],"max":[2450],"type":"SCALAR","bufferView":2,"byteOffset":0}],"asset":{"generator":"obj2gltf","version":"2.0"},"buffers":[{"name":"bs","byteLength":311608,"uri":"data:application/octet-stream;base64,"}],"bufferViews":[{"name":"bufferView_0","buffer":0,"byteLength":58824,"byteOffset":0,"byteStride":12,"target":34962},{"name":"bufferView_1","buffer":0,"byteLength":19608,"byteOffset":58824,"byteStride":8,"target":34962},{"name":"bufferView_2","buffer":0,"byteLength":15516,"byteOffset":78432,"target":34963},{"buffer":0,"byteOffset":93948,"byteLength":217659}],"images":[{"name":"bs","mimeType":"image/jpeg","bufferView":3}],"materials":[{"name":"bakedSG","pbrMetallicRoughness":{"baseColorTexture":{"index":0},"baseColorFactor":[1,1,1,1],"metallicFactor":0,"roughnessFactor":1},"emissiveFactor":[0,0,0],"alphaMode":"OPAQUE","doubleSided":false}],"meshes":[{"name":"bs_1","primitives":[{"attributes":{"POSITION":0,"NORMAL":1,"TEXCOORD_0":2},"indices":3,"material":0,"mode":4}]}],"nodes":[{"name":"bs","mesh":0}],"samplers":[{"magFilter":9729,"minFilter":9986,"wrapS":10497,"wrapT":10497}],"scene":0,"scenes":[{"nodes":[0]}],"textures":[{"name":"bs","sampler":0,"source":0}]}
